# Blender 4.0.2
# www.blender.org
mtllib card.mtl
o Cube
v -1.554782 0.017995 2.478150
v -1.555979 0.009839 2.486306
v -1.707823 0.017995 2.325109
v -1.715979 0.009839 2.326306
v -1.630165 0.017995 2.455535
v -1.634478 0.009839 2.462757
v -1.685208 0.017995 2.400492
v -1.692429 0.009839 2.404805
v -1.707823 -0.017995 2.325109
v -1.715979 -0.009839 2.326306
v -1.554782 -0.017995 2.478150
v -1.555979 -0.009839 2.486306
v -1.685208 -0.017995 2.400492
v -1.692429 -0.009839 2.404805
v -1.630165 -0.017995 2.455535
v -1.634478 -0.009839 2.462757
v -1.707823 0.017995 -2.325109
v -1.715979 0.009839 -2.326306
v -1.554782 0.017995 -2.478150
v -1.555979 0.009839 -2.486306
v -1.685208 0.017995 -2.400492
v -1.692429 0.009839 -2.404805
v -1.630165 0.017995 -2.455535
v -1.634478 0.009839 -2.462757
v -1.554782 -0.017995 -2.478150
v -1.555979 -0.009839 -2.486306
v -1.707823 -0.017995 -2.325109
v -1.715979 -0.009839 -2.326306
v -1.630165 -0.017995 -2.455535
v -1.634478 -0.009839 -2.462757
v -1.685208 -0.017995 -2.400492
v -1.692429 -0.009839 -2.404805
v 1.707823 0.017995 2.325109
v 1.715979 0.009839 2.326306
v 1.554782 0.017995 2.478150
v 1.555979 0.009839 2.486306
v 1.685208 0.017995 2.400492
v 1.692429 0.009839 2.404805
v 1.630165 0.017995 2.455535
v 1.634478 0.009839 2.462757
v 1.554782 -0.017995 2.478150
v 1.555979 -0.009839 2.486306
v 1.707823 -0.017995 2.325109
v 1.715979 -0.009839 2.326306
v 1.630165 -0.017995 2.455535
v 1.634478 -0.009839 2.462757
v 1.685208 -0.017995 2.400492
v 1.692429 -0.009839 2.404805
v 1.554782 0.017995 -2.478150
v 1.555979 0.009839 -2.486306
v 1.707823 0.017995 -2.325109
v 1.715979 0.009839 -2.326306
v 1.630165 0.017995 -2.455535
v 1.634478 0.009839 -2.462757
v 1.685208 0.017995 -2.400492
v 1.692429 0.009839 -2.404805
v 1.707823 -0.017995 -2.325109
v 1.715979 -0.009839 -2.326306
v 1.554782 -0.017995 -2.478150
v 1.555979 -0.009839 -2.486306
v 1.685208 -0.017995 -2.400492
v 1.692429 -0.009839 -2.404805
v 1.630165 -0.017995 -2.455535
v 1.634478 -0.009839 -2.462757
vn -0.7977 0.3695 0.4765
vn -0.9180 0.3730 0.1347
vn -0.9180 -0.3730 0.1347
vn -0.7977 -0.3695 0.4765
vn 0.1347 -0.3730 0.9180
vn 0.4765 -0.3695 0.7977
vn 0.4765 0.3695 0.7977
vn 0.1347 0.3730 0.9180
vn -0.7977 -0.3695 -0.4765
vn -0.9180 -0.3730 -0.1347
vn -0.9180 0.3730 -0.1347
vn -0.7977 0.3695 -0.4765
vn -0.4765 0.3695 0.7977
vn -0.4765 -0.3695 0.7977
vn -0.4765 -0.3695 -0.7977
vn -0.4765 0.3695 -0.7977
vn -0.1347 0.3730 0.9180
vn -0.1347 -0.3730 0.9180
vn 0.4052 -0.9123 -0.0595
vn 0.4052 -0.9123 0.0595
vn 0.3640 -0.9057 0.2174
vn 0.2174 -0.9057 0.3640
vn 0.0595 -0.9123 0.4052
vn -0.0595 -0.9123 0.4052
vn -0.2174 -0.9057 0.3640
vn -0.3640 -0.9057 0.2174
vn -0.4052 -0.9123 0.0595
vn -0.4052 -0.9123 -0.0595
vn -0.3640 -0.9057 -0.2174
vn -0.2174 -0.9057 -0.3640
vn -0.0595 -0.9123 -0.4052
vn 0.0595 -0.9123 -0.4052
vn 0.2174 -0.9057 -0.3640
vn 0.3640 -0.9057 -0.2174
vn -0.1347 0.3730 -0.9180
vn 0.1347 0.3730 -0.9180
vn 0.1347 -0.3730 -0.9180
vn -0.1347 -0.3730 -0.9180
vn 0.7977 -0.3695 0.4765
vn 0.9180 -0.3730 0.1347
vn 0.9180 0.3730 0.1347
vn 0.7977 0.3695 0.4765
vn 0.7977 -0.3695 -0.4765
vn 0.4765 -0.3695 -0.7977
vn 0.4765 0.3695 -0.7977
vn 0.7977 0.3695 -0.4765
vn 0.9180 -0.3730 -0.1347
vn 0.9180 0.3730 -0.1347
vn -0.0595 0.9123 0.4052
vn -0.2174 0.9057 0.3640
vn -0.3640 0.9057 0.2174
vn -0.4052 0.9123 0.0595
vn -0.2174 0.9057 -0.3640
vn -0.0595 0.9123 -0.4052
vn -0.3640 0.9057 -0.2174
vn -0.4052 0.9123 -0.0595
vn 0.3640 0.9057 -0.2174
vn 0.4052 0.9123 -0.0595
vn 0.2174 0.9057 -0.3640
vn 0.0595 0.9123 -0.4052
vn 0.2174 0.9057 0.3640
vn 0.0595 0.9123 0.4052
vn 0.3640 0.9057 0.2174
vn 0.4052 0.9123 0.0595
vt -0.443344 0.004097
vt -0.443344 0.008044
vt -0.306656 0.008044
vt -0.306656 0.004097
vt -0.306656 0.761655
vt -0.306656 0.755937
vt -0.443344 0.755937
vt -0.443344 0.761655
vt -0.306656 0.245903
vt -0.306656 0.241956
vt -0.443344 0.241956
vt -0.443344 0.245903
vt -0.443344 0.000000
vt -0.443344 0.004097
vt -0.306656 0.000000
vt -0.306656 0.255937
vt -0.306656 0.245903
vt -0.443344 0.245903
vt -0.443344 0.255937
vt -0.443344 0.988345
vt -0.306656 0.988345
vt -0.306656 0.761655
vt 0.008597 0.038262
vt 0.008597 0.961738
vt 0.015104 0.976708
vt 0.030942 0.987640
vt 0.052632 0.992130
vt 0.947368 0.992130
vt 0.969058 0.987640
vt 0.984896 0.976708
vt 0.991403 0.961738
vt 0.991403 0.038262
vt 0.984896 0.023291
vt 0.969058 0.012360
vt 0.947368 0.007870
vt 0.052633 0.007870
vt 0.030942 0.012360
vt 0.015104 0.023291
vt -0.443344 0.241956
vt -0.306656 0.241956
vt -0.306656 0.008044
vt -0.443344 0.261655
vt -0.443344 0.488345
vt -0.306656 0.488345
vt -0.306656 0.261655
vt -0.306656 0.745902
vt -0.306656 0.741956
vt -0.443344 0.741956
vt -0.443344 0.745902
vt -0.306656 0.261655
vt -0.306656 0.504098
vt -0.306656 0.494063
vt -0.443344 0.494063
vt -0.443344 0.504097
vt -0.306656 0.508044
vt -0.443344 0.504097
vt -0.443344 0.508044
vt -0.443344 0.745902
vt -0.306656 0.494063
vt -0.443344 0.741956
vt -0.306656 0.741956
vt -0.306656 0.508044
vt -0.443344 1.000000
vt -0.306656 1.000000
vt 0.970299 0.010926
vt 0.947712 0.006250
vt 0.947368 0.007870
vt 0.969058 0.012360
vt -0.250000 0.999708
vt -0.250000 0.988515
vt 0.986974 0.022436
vt 0.984896 0.023292
vt -0.250000 0.003995
vt -0.250000 0.000103
vt 0.993750 0.038024
vt 0.991403 0.038262
vt -0.250000 0.007986
vt -0.250000 0.004196
vt -0.250000 0.261572
vt -0.250000 0.256080
vt 0.947712 0.993750
vt 0.970299 0.989073
vt 0.969058 0.987639
vt 0.947368 0.992130
vt -0.250000 0.255685
vt -0.250000 0.246154
vt 0.986974 0.977565
vt 0.984896 0.976709
vt -0.250000 0.245804
vt -0.250000 0.242014
vt 0.993750 0.961976
vt 0.991403 0.961738
vt -0.250000 0.507986
vt -0.250000 0.504197
vt 0.006250 0.961976
vt 0.013026 0.977565
vt 0.015104 0.976709
vt 0.008597 0.961738
vt -0.250000 0.503846
vt -0.250000 0.494315
vt 0.029701 0.989073
vt 0.030942 0.987639
vt -0.250000 0.493920
vt -0.250000 0.488428
vt 0.052288 0.993750
vt 0.052632 0.992130
vt -0.250000 0.761571
vt -0.250000 0.756080
vt 0.052288 0.006250
vt 0.029701 0.010926
vt 0.030942 0.012360
vt 0.052632 0.007870
vt -0.250000 0.755685
vt -0.250000 0.746154
vt 0.013026 0.022436
vt 0.015104 0.023292
vt -0.250000 0.745803
vt -0.250000 0.742014
vt 0.006250 0.038024
vt 0.008597 0.038262
vt -0.250000 0.241896
vt -0.250000 0.008104
vt -0.250000 0.988258
vt -0.250000 0.761742
vt -0.250000 0.741896
vt -0.250000 0.508104
vt -0.250000 0.488258
vt -0.250000 0.261742
vt 0.008597 0.961738
vt 0.015104 0.023292
vt 0.030942 0.012360
vt 0.052632 0.007870
vt 0.947368 0.007870
vt 0.969058 0.012360
vt 0.984896 0.023292
vt 0.991403 0.038262
vt 0.984896 0.976709
vt 0.969058 0.987639
vt 0.947368 0.992130
vt 0.052632 0.992130
vt 0.030942 0.987639
vt 0.015104 0.976709
s 1
usemtl Front
f 6/65/13 2/66/17 1/67/49 5/68/50
f 8/71/1 6/65/13 5/68/50 7/72/51
f 4/75/2 8/71/1 7/72/51 3/76/52
f 20/81/35 24/82/16 23/83/53 19/84/54
f 24/82/16 22/87/12 21/88/55 23/83/53
f 22/87/12 18/91/11 17/92/56 21/88/55
f 52/95/48 56/96/46 55/97/57 51/98/58
f 56/96/46 54/101/45 53/102/59 55/97/57
f 54/101/45 50/105/36 49/106/60 53/102/59
f 36/109/8 40/110/7 39/111/61 35/112/62
f 40/110/7 38/115/42 37/116/63 39/111/61
f 38/115/42 34/119/41 33/120/64 37/116/63
f 3/76/52 17/92/56 18/91/11 4/75/2
f 19/84/54 49/106/60 50/105/36 20/81/35
f 51/98/58 33/120/64 34/119/41 52/95/48
f 35/112/62 1/67/49 2/66/17 36/109/8
f 17/129/56 3/120/52 7/130/51 5/131/50 1/132/49 35/133/62 39/134/61 37/135/63 33/136/64 51/92/58 55/137/57 53/138/59 49/139/60 19/140/54 23/141/53 21/142/55
usemtl Back
f 57/23/19 43/24/20 47/25/21 45/26/22 41/27/23 11/28/24 15/29/25 13/30/26 9/31/27 27/32/28 31/33/29 29/34/30 25/35/31 59/36/32 63/37/33 61/38/34
usemtl Sides
f 8/1/1 4/2/2 10/3/3 14/4/4
f 42/5/5 46/6/6 40/7/7 36/8/8
f 32/9/9 28/10/10 18/11/11 22/12/12
f 6/13/13 8/14/1 14/4/4 16/15/14
f 30/16/15 32/17/9 22/18/12 24/19/16
f 36/8/8 2/20/17 12/21/18 42/22/5
f 4/2/2 18/39/11 28/40/10 10/41/3
f 20/42/35 50/43/36 60/44/37 26/45/38
f 48/46/39 44/47/40 34/48/41 38/49/42
f 26/50/38 30/16/15 24/19/16 20/42/35
f 62/51/43 64/52/44 54/53/45 56/54/46
f 58/55/47 62/51/43 56/56/46 52/57/48
f 46/6/6 48/46/39 38/58/42 40/7/7
f 64/59/44 60/44/37 50/43/36 54/53/45
f 52/57/48 34/60/41 44/61/40 58/62/47
f 2/20/17 6/63/13 16/64/14 12/21/18
f 12/21/18 16/64/14 15/69/25 11/70/24
f 16/15/14 14/4/4 13/73/26 15/74/25
f 14/4/4 10/3/3 9/77/27 13/78/26
f 30/16/15 26/50/38 25/79/31 29/80/30
f 32/17/9 30/16/15 29/85/30 31/86/29
f 28/10/10 32/9/9 31/89/29 27/90/28
f 62/51/43 58/55/47 57/93/19 61/94/34
f 64/52/44 62/51/43 61/99/34 63/100/33
f 60/44/37 64/59/44 63/103/33 59/104/32
f 46/6/6 42/5/5 41/107/23 45/108/22
f 48/46/39 46/6/6 45/113/22 47/114/21
f 44/47/40 48/46/39 47/117/21 43/118/20
f 10/41/3 28/40/10 27/121/28 9/122/27
f 42/22/5 12/21/18 11/123/24 41/124/23
f 43/125/20 57/126/19 58/62/47 44/61/40
f 59/127/32 25/128/31 26/45/38 60/44/37
